<svg preserveAspectRatio="none" overflow="visible" style="display: block;" width="24" height="24" viewBox="0 0 24 24" fill="none" xmlns="http://www.w3.org/2000/svg">
<g id="material-symbols:gesture-select-outline-rounded">
<path id="Vector" d="M2 4C1.71667 4 1.47933 3.904 1.288 3.712C1.09667 3.52 1.00067 3.28267 1 3C0.999333 2.71733 1.09533 2.48 1.288 2.288C1.48067 2.096 1.718 2 2 2C2.282 2 2.51967 2.096 2.713 2.288C2.90633 2.48 3.002 2.71733 3 3C2.998 3.28267 2.902 3.52033 2.712 3.713C2.522 3.90567 2.28467 4.00133 2 4ZM5.288 3.712C5.096 3.52133 5 3.284 5 3C5 2.716 5.096 2.47867 5.288 2.288C5.48 2.09733 5.71733 2.00133 6 2C6.28267 1.99867 6.52033 2.09467 6.713 2.288C6.90567 2.48133 7.00133 2.71867 7 3C6.99867 3.28133 6.90267 3.519 6.712 3.713C6.52133 3.907 6.284 4.00267 6 4C5.716 3.99733 5.47867 3.90133 5.288 3.712ZM9.288 3.712C9.096 3.52133 9 3.284 9 3C9 2.716 9.096 2.47867 9.288 2.288C9.48 2.09733 9.71733 2.00133 10 2C10.2827 1.99867 10.5203 2.09467 10.713 2.288C10.9057 2.48133 11.0013 2.71867 11 3C10.9987 3.28133 10.9027 3.519 10.712 3.713C10.5213 3.907 10.284 4.00267 10 4C9.716 3.99733 9.47867 3.90133 9.288 3.712ZM13.288 3.712C13.096 3.52133 13 3.284 13 3C13 2.716 13.096 2.47867 13.288 2.288C13.48 2.09733 13.7173 2.00133 14 2C14.2827 1.99867 14.5203 2.09467 14.713 2.288C14.9057 2.48133 15.0013 2.71867 15 3C14.9987 3.28133 14.9027 3.519 14.712 3.713C14.5213 3.907 14.284 4.00267 14 4C13.716 3.99733 13.4787 3.90133 13.288 3.712ZM17.288 3.712C17.096 3.52133 17 3.284 17 3C17 2.716 17.096 2.47867 17.288 2.288C17.48 2.09733 17.7173 2.00133 18 2C18.2827 1.99867 18.5203 2.09467 18.713 2.288C18.9057 2.48133 19.0013 2.71867 19 3C18.9987 3.28133 18.9027 3.519 18.712 3.713C18.5213 3.907 18.284 4.00267 18 4C17.716 3.99733 17.4787 3.90133 17.288 3.712ZM21.288 3.712C21.096 3.52133 21 3.284 21 3C21 2.716 21.096 2.47867 21.288 2.288C21.48 2.09733 21.7173 2.00133 22 2C22.2827 1.99867 22.5203 2.09467 22.713 2.288C22.9057 2.48133 23.0013 2.71867 23 3C22.9987 3.28133 22.9027 3.519 22.712 3.713C22.5213 3.907 22.284 4.00267 22 4C21.716 3.99733 21.4787 3.90133 21.288 3.712ZM2 8C1.71667 8 1.47933 7.904 1.288 7.712C1.09667 7.52 1.00067 7.28267 1 7C0.999333 6.71733 1.09533 6.48 1.288 6.288C1.48067 6.096 1.718 6 2 6C2.282 6 2.51967 6.096 2.713 6.288C2.90633 6.48 3.002 6.71733 3 7C2.998 7.28267 2.902 7.52033 2.712 7.713C2.522 7.90567 2.28467 8.00133 2 8ZM2 12C1.71667 12 1.47933 11.904 1.288 11.712C1.09667 11.52 1.00067 11.2827 1 11C0.999333 10.7173 1.09533 10.48 1.288 10.288C1.48067 10.096 1.718 10 2 10C2.282 10 2.51967 10.096 2.713 10.288C2.90633 10.48 3.002 10.7173 3 11C2.998 11.2827 2.902 11.5203 2.712 11.713C2.522 11.9057 2.28467 12.0013 2 12ZM5.288 11.712C5.096 11.5213 5 11.284 5 11C5 10.716 5.096 10.4787 5.288 10.288C5.48 10.0973 5.71733 10.0013 6 10C6.28267 9.99867 6.52033 10.0947 6.713 10.288C6.90567 10.4813 7.00133 10.7187 7 11C6.99867 11.2813 6.90267 11.519 6.712 11.713C6.52133 11.907 6.284 12.0027 6 12C5.716 11.9973 5.47867 11.9013 5.288 11.712ZM17.288 11.712C17.096 11.5213 17 11.284 17 11C17 10.716 17.096 10.4787 17.288 10.288C17.48 10.0973 17.7173 10.0013 18 10C18.2827 9.99867 18.5203 10.0947 18.713 10.288C18.9057 10.4813 19.0013 10.7187 19 11C18.9987 11.2813 18.9027 11.519 18.712 11.713C18.5213 11.907 18.284 12.0027 18 12C17.716 11.9973 17.4787 11.9013 17.288 11.712ZM21.288 11.712C21.096 11.5213 21 11.284 21 11C21 10.716 21.096 10.4787 21.288 10.288C21.48 10.0973 21.7173 10.0013 22 10C22.2827 9.99867 22.5203 10.0947 22.713 10.288C22.9057 10.4813 23.0013 10.7187 23 11C22.9987 11.2813 22.9027 11.519 22.712 11.713C22.5213 11.907 22.284 12.0027 22 12C21.716 11.9973 21.4787 11.9013 21.288 11.712ZM21.288 7.712C21.096 7.52133 21 7.284 21 7C21 6.716 21.096 6.47867 21.288 6.288C21.48 6.09733 21.7173 6.00133 22 6C22.2827 5.99867 22.5203 6.09467 22.713 6.288C22.9057 6.48133 23.0013 6.71867 23 7C22.9987 7.28133 22.9027 7.519 22.712 7.713C22.5213 7.907 22.284 8.00267 22 8C21.716 7.99733 21.4787 7.90133 21.288 7.712ZM11.825 23C11.425 23 11.0417 22.925 10.675 22.775C10.3083 22.625 9.98333 22.4083 9.7 22.125L5.3 17.7C5.08333 17.4833 4.996 17.229 5.038 16.937C5.08 16.645 5.209 16.3827 5.425 16.15C5.65833 15.9167 5.94167 15.7583 6.275 15.675C6.60833 15.5917 6.94167 15.5917 7.275 15.675L9 16.175V8C9 7.71667 9.096 7.47933 9.288 7.288C9.48 7.09667 9.71733 7.00067 10 7C10.2827 6.99933 10.5203 7.09533 10.713 7.288C10.9057 7.48067 11.0013 7.718 11 8V17.5C11 17.8333 10.871 18.096 10.613 18.288C10.355 18.48 10.059 18.534 9.725 18.45L8.55 18.125L11.125 20.7C11.2083 20.7833 11.3127 20.8543 11.438 20.913C11.5633 20.9717 11.6923 21.0007 11.825 21H16C16.55 21 17.021 20.8043 17.413 20.413C17.805 20.0217 18.0007 19.5507 18 19V15C18 14.7167 18.096 14.4793 18.288 14.288C18.48 14.0967 18.7173 14.0007 19 14C19.2827 13.9993 19.5203 14.0953 19.713 14.288C19.9057 14.4807 20.0013 14.718 20 15V19C20 20.1 19.6083 21.0417 18.825 21.825C18.0417 22.6083 17.1 23 16 23H11.825ZM13.713 11.288C13.9043 11.4793 14 11.7167 14 12V15C14 15.2833 13.904 15.521 13.712 15.713C13.52 15.905 13.2827 16.0007 13 16C12.7173 15.9993 12.48 15.9033 12.288 15.712C12.096 15.5207 12 15.2833 12 15V12C12 11.7167 12.096 11.4793 12.288 11.288C12.48 11.0967 12.7173 11.0007 13 11C13.2827 10.9993 13.5203 11.0953 13.713 11.288ZM16.713 12.288C16.9043 12.4793 17 12.7167 17 13V15C17 15.2833 16.904 15.521 16.712 15.713C16.52 15.905 16.2827 16.0007 16 16C15.7173 15.9993 15.48 15.9033 15.288 15.712C15.096 15.5207 15 15.2833 15 15V13C15 12.7167 15.096 12.4793 15.288 12.288C15.48 12.0967 15.7173 12.0007 16 12C16.2827 11.9993 16.5203 12.0953 16.713 12.288Z" fill="white"/>
</g>
</svg>
