<svg width="24" height="24" viewBox="0 0 24 24" fill="none" xmlns="http://www.w3.org/2000/svg">
<path d="M10.8527 14.7754L10.4697 15.6984M10.8527 9.23062L10.4697 8.30762M13.1494 14.7754L13.5314 15.6994M13.5324 8.30762L13.1494 9.23062M14.7734 10.8547L15.6964 10.4717M14.7734 13.1514L15.6964 13.5344M6.40293 6.50293C6.16056 6.0836 6.02291 5.61161 6.00252 5.12771C5.97942 4.58026 6.10669 4.03694 6.37052 3.55671C6.69103 2.97267 7.19683 2.51193 7.80816 2.24714C8.41948 1.98235 9.10155 1.92858 9.74682 2.09431C10.3921 2.26004 10.9638 2.63583 11.3719 3.16244C11.78 3.68905 12.0011 4.3365 12.0005 5.00271C12.0005 4.54253 12.1063 4.08852 12.3099 3.6758C12.5134 3.26307 12.8091 2.9027 13.1742 2.62255C13.5393 2.34241 13.9639 2.15001 14.4152 2.06023C14.8666 1.97045 15.3325 1.9857 15.777 2.1048C16.2215 2.22391 16.6326 2.44367 16.9786 2.74709C17.3246 3.05051 17.5961 3.42945 17.7722 3.8546C17.9483 4.27975 18.0242 4.73971 17.9941 5.1989C17.964 5.65809 17.8286 6.1042 17.5985 6.50271M6.00252 5.12771C5.41467 5.27892 4.86895 5.56194 4.40668 5.95532C3.94442 6.3487 3.57775 6.84213 3.33444 7.39822C3.09113 7.95431 2.97757 8.55848 3.00236 9.16496C3.02715 9.77144 3.18964 10.3643 3.47752 10.8987M17.999 5.12793C18.5869 5.27915 19.1326 5.56216 19.5949 5.95554C20.0571 6.34892 20.4238 6.84235 20.6671 7.39844C20.9104 7.95453 21.024 8.5587 20.9992 9.16518C20.9744 9.77167 20.8119 10.3646 20.524 10.8989M19.5059 10.2969C20.365 10.6458 21.0763 11.2825 21.5179 12.0979C21.9596 12.9133 22.1042 13.8569 21.927 14.7671C21.7498 15.6774 21.2619 16.4978 20.5466 17.0881C19.8313 17.6783 18.9332 18.0017 18.0059 18.0029M4.03301 17.4863C3.91262 18.404 4.11423 19.3351 4.60346 20.1208C5.09269 20.9066 5.83926 21.4983 6.71594 21.7952C7.59261 22.0921 8.54511 22.0758 9.4111 21.749C10.2771 21.4223 11.003 20.8053 11.465 20.0033C11.645 19.6923 12.357 19.6923 12.537 20.0033C12.999 20.8052 13.7248 21.422 14.5907 21.7487C15.4565 22.0754 16.4089 22.0918 17.2855 21.7951C18.162 21.4983 18.9086 20.9068 19.3979 20.1213C19.8872 19.3358 20.0891 18.4049 19.969 17.4873M4.50126 10.2939C3.64015 10.6417 2.92687 11.2782 2.48375 12.0943C2.04063 12.9105 1.89529 13.8554 2.07267 14.7669C2.25004 15.6785 2.73907 16.5 3.45587 17.0904C4.17268 17.6808 5.07259 18.0035 6.00126 18.0029M9.22866 10.8547L8.30566 10.4717M9.22866 13.1514L8.30566 13.5344M15.001 12.0029C15.001 13.6598 13.6578 15.0029 12.001 15.0029C10.3441 15.0029 9.00098 13.6598 9.00098 12.0029C9.00098 10.3461 10.3441 9.00293 12.001 9.00293C13.6578 9.00293 15.001 10.3461 15.001 12.0029Z" stroke="white" stroke-width="2" stroke-linecap="round"/>
</svg>
